<mxfile host="Electron" agent="Mozilla/5.0 (Windows NT 10.0; Win64; x64) AppleWebKit/537.36 (KHTML, like Gecko) draw.io/28.0.6 Chrome/138.0.7204.100 Electron/37.2.3 Safari/537.36" version="28.0.6">
  <diagram name="Página-1" id="cSd-_wRobqRKL74ayYy6">
    <mxGraphModel dx="2593" dy="1747" grid="1" gridSize="10" guides="1" tooltips="1" connect="1" arrows="1" fold="1" page="1" pageScale="1" pageWidth="827" pageHeight="1169" math="0" shadow="0">
      <root>
        <mxCell id="0" />
        <mxCell id="1" parent="0" />
        <mxCell id="NgBLxMBELUggTvaBQ7se-1" value="&lt;b&gt;Mantener la continuidad de negocio con minimizacion de costes&lt;/b&gt;" style="rounded=1;whiteSpace=wrap;html=1;fillColor=#f8cecc;strokeColor=#b85450;fontSize=13;" parent="1" vertex="1">
          <mxGeometry x="380" y="930" width="275" height="55" as="geometry" />
        </mxCell>
        <mxCell id="NgBLxMBELUggTvaBQ7se-2" value="Redactor" style="rounded=1;whiteSpace=wrap;html=1;fontStyle=1;fillColor=#d5e8d4;strokeColor=#82b366;" parent="1" vertex="1">
          <mxGeometry x="720" y="622.5" width="90" height="40" as="geometry" />
        </mxCell>
        <mxCell id="NgBLxMBELUggTvaBQ7se-3" value="Dirección" style="rounded=1;whiteSpace=wrap;html=1;fontStyle=1;fillColor=#d5e8d4;strokeColor=#82b366;" parent="1" vertex="1">
          <mxGeometry x="720" y="1602.5" width="90" height="40" as="geometry" />
        </mxCell>
        <mxCell id="NgBLxMBELUggTvaBQ7se-4" value="Agilizar el ciclo de evaluación de artículos" style="rounded=1;whiteSpace=wrap;html=1;fontStyle=1;fillColor=#dae8fc;strokeColor=#6c8ebf;" parent="1" vertex="1">
          <mxGeometry x="870" y="617.5" width="170" height="50" as="geometry" />
        </mxCell>
        <mxCell id="NgBLxMBELUggTvaBQ7se-5" value="Consolidar la configuración de los números de la revista" style="rounded=1;whiteSpace=wrap;html=1;fontStyle=1;fillColor=#dae8fc;strokeColor=#6c8ebf;" parent="1" vertex="1">
          <mxGeometry x="870" y="880" width="170" height="50" as="geometry" />
        </mxCell>
        <mxCell id="NgBLxMBELUggTvaBQ7se-6" value="Reducir los pasos para registrar artículos, autores y su documentación asociada" style="rounded=1;whiteSpace=wrap;html=1;fontStyle=1;fillColor=#dae8fc;strokeColor=#6c8ebf;" parent="1" vertex="1">
          <mxGeometry x="860" y="260" width="170" height="50" as="geometry" />
        </mxCell>
        <mxCell id="NgBLxMBELUggTvaBQ7se-7" value="Centralizar la gestión de suscripciones y suscriptores" style="rounded=1;whiteSpace=wrap;html=1;fontStyle=1;fillColor=#dae8fc;strokeColor=#6c8ebf;" parent="1" vertex="1">
          <mxGeometry x="870" y="1122.5" width="170" height="40" as="geometry" />
        </mxCell>
        <mxCell id="NgBLxMBELUggTvaBQ7se-8" value="Facilitar la monitorización del proceso editorial" style="rounded=1;whiteSpace=wrap;html=1;fontStyle=1;fillColor=#dae8fc;strokeColor=#6c8ebf;" parent="1" vertex="1">
          <mxGeometry x="860" y="1435" width="170" height="50" as="geometry" />
        </mxCell>
        <mxCell id="NgBLxMBELUggTvaBQ7se-9" value="Recibir información detallada sobre la revista" style="rounded=1;whiteSpace=wrap;html=1;fontStyle=1;fillColor=#dae8fc;strokeColor=#6c8ebf;" parent="1" vertex="1">
          <mxGeometry x="860" y="1597.5" width="170" height="50" as="geometry" />
        </mxCell>
        <mxCell id="NgBLxMBELUggTvaBQ7se-10" value="Panel de&amp;nbsp;carga de datos de autor y datos de contacto" style="rounded=1;whiteSpace=wrap;html=1;fontStyle=1;fillColor=#f5f5f5;fontColor=#333333;strokeColor=#666666;" parent="1" vertex="1">
          <mxGeometry x="1080" y="100" width="240" height="50" as="geometry" />
        </mxCell>
        <mxCell id="NgBLxMBELUggTvaBQ7se-12" value="Formulario de carga de documentos DNI, CV y opcionales." style="rounded=1;whiteSpace=wrap;html=1;fontStyle=1;align=center;fillColor=#f5f5f5;fontColor=#333333;strokeColor=#666666;" parent="1" vertex="1">
          <mxGeometry x="1080" y="160" width="240" height="50" as="geometry" />
        </mxCell>
        <mxCell id="NgBLxMBELUggTvaBQ7se-13" value="Componente de búsqueda por artículos y datos asociados" style="rounded=1;whiteSpace=wrap;html=1;fontStyle=1;fillColor=#f5f5f5;fontColor=#333333;strokeColor=#666666;" parent="1" vertex="1">
          <mxGeometry x="1080" y="1518.75" width="240" height="65" as="geometry" />
        </mxCell>
        <mxCell id="NgBLxMBELUggTvaBQ7se-14" value="Asignación estados a los Números de la Revista" style="rounded=1;whiteSpace=wrap;html=1;fontStyle=1;fillColor=#f5f5f5;fontColor=#333333;strokeColor=#666666;" parent="1" vertex="1">
          <mxGeometry x="1080" y="1420" width="240" height="37.5" as="geometry" />
        </mxCell>
        <mxCell id="NgBLxMBELUggTvaBQ7se-16" value="Distribuidor" style="rounded=1;whiteSpace=wrap;html=1;fontStyle=1;fillColor=#d5e8d4;strokeColor=#82b366;" parent="1" vertex="1">
          <mxGeometry x="720" y="1225" width="90" height="40" as="geometry" />
        </mxCell>
        <mxCell id="NgBLxMBELUggTvaBQ7se-17" value="Formulario de alta y edición de suscripciones" style="rounded=1;whiteSpace=wrap;html=1;fontStyle=1;fillColor=#f5f5f5;fontColor=#333333;strokeColor=#666666;" parent="1" vertex="1">
          <mxGeometry x="1080" y="1005" width="240" height="45" as="geometry" />
        </mxCell>
        <mxCell id="NgBLxMBELUggTvaBQ7se-18" value="" style="endArrow=none;html=1;rounded=0;exitX=1;exitY=0.5;exitDx=0;exitDy=0;entryX=0;entryY=0.5;entryDx=0;entryDy=0;" parent="1" source="NgBLxMBELUggTvaBQ7se-1" target="NgBLxMBELUggTvaBQ7se-2" edge="1">
          <mxGeometry width="50" height="50" relative="1" as="geometry">
            <mxPoint x="900" y="380" as="sourcePoint" />
            <mxPoint x="950" y="330" as="targetPoint" />
          </mxGeometry>
        </mxCell>
        <mxCell id="NgBLxMBELUggTvaBQ7se-19" value="" style="endArrow=none;html=1;rounded=0;exitX=1;exitY=0.25;exitDx=0;exitDy=0;entryX=-0.005;entryY=0.592;entryDx=0;entryDy=0;entryPerimeter=0;" parent="1" source="NgBLxMBELUggTvaBQ7se-2" target="NgBLxMBELUggTvaBQ7se-6" edge="1">
          <mxGeometry width="50" height="50" relative="1" as="geometry">
            <mxPoint x="900" y="380" as="sourcePoint" />
            <mxPoint x="950" y="330" as="targetPoint" />
          </mxGeometry>
        </mxCell>
        <mxCell id="NgBLxMBELUggTvaBQ7se-20" value="" style="endArrow=none;html=1;rounded=0;exitX=1;exitY=0.25;exitDx=0;exitDy=0;entryX=0;entryY=0.5;entryDx=0;entryDy=0;" parent="1" source="NgBLxMBELUggTvaBQ7se-6" target="NgBLxMBELUggTvaBQ7se-10" edge="1">
          <mxGeometry width="50" height="50" relative="1" as="geometry">
            <mxPoint x="900" y="380" as="sourcePoint" />
            <mxPoint x="950" y="330" as="targetPoint" />
          </mxGeometry>
        </mxCell>
        <mxCell id="NgBLxMBELUggTvaBQ7se-21" value="" style="endArrow=none;html=1;rounded=0;exitX=0.998;exitY=0.383;exitDx=0;exitDy=0;entryX=0;entryY=0.5;entryDx=0;entryDy=0;exitPerimeter=0;" parent="1" source="NgBLxMBELUggTvaBQ7se-6" target="NgBLxMBELUggTvaBQ7se-12" edge="1">
          <mxGeometry width="50" height="50" relative="1" as="geometry">
            <mxPoint x="900" y="380" as="sourcePoint" />
            <mxPoint x="950" y="330" as="targetPoint" />
          </mxGeometry>
        </mxCell>
        <mxCell id="NgBLxMBELUggTvaBQ7se-22" value="" style="endArrow=none;html=1;rounded=0;exitX=1;exitY=0.5;exitDx=0;exitDy=0;entryX=0;entryY=0.5;entryDx=0;entryDy=0;" parent="1" source="NgBLxMBELUggTvaBQ7se-9" target="NgBLxMBELUggTvaBQ7se-13" edge="1">
          <mxGeometry width="50" height="50" relative="1" as="geometry">
            <mxPoint x="900" y="1577.5" as="sourcePoint" />
            <mxPoint x="950" y="1527.5" as="targetPoint" />
          </mxGeometry>
        </mxCell>
        <mxCell id="NgBLxMBELUggTvaBQ7se-23" value="" style="endArrow=none;html=1;rounded=0;exitX=1;exitY=0.5;exitDx=0;exitDy=0;entryX=0;entryY=0.5;entryDx=0;entryDy=0;" parent="1" source="NgBLxMBELUggTvaBQ7se-8" target="NgBLxMBELUggTvaBQ7se-14" edge="1">
          <mxGeometry width="50" height="50" relative="1" as="geometry">
            <mxPoint x="900" y="1416.25" as="sourcePoint" />
            <mxPoint x="950" y="1366.25" as="targetPoint" />
          </mxGeometry>
        </mxCell>
        <mxCell id="NgBLxMBELUggTvaBQ7se-24" value="" style="endArrow=none;html=1;rounded=0;exitX=1;exitY=0.5;exitDx=0;exitDy=0;entryX=0;entryY=0.5;entryDx=0;entryDy=0;" parent="1" source="NgBLxMBELUggTvaBQ7se-3" target="NgBLxMBELUggTvaBQ7se-9" edge="1">
          <mxGeometry width="50" height="50" relative="1" as="geometry">
            <mxPoint x="890" y="1047.5" as="sourcePoint" />
            <mxPoint x="940" y="997.5" as="targetPoint" />
          </mxGeometry>
        </mxCell>
        <mxCell id="NgBLxMBELUggTvaBQ7se-25" value="" style="endArrow=none;html=1;rounded=0;exitX=1;exitY=0.5;exitDx=0;exitDy=0;entryX=0;entryY=0.5;entryDx=0;entryDy=0;" parent="1" source="NgBLxMBELUggTvaBQ7se-3" target="NgBLxMBELUggTvaBQ7se-8" edge="1">
          <mxGeometry width="50" height="50" relative="1" as="geometry">
            <mxPoint x="890" y="1047.5" as="sourcePoint" />
            <mxPoint x="940" y="997.5" as="targetPoint" />
          </mxGeometry>
        </mxCell>
        <mxCell id="NgBLxMBELUggTvaBQ7se-26" value="" style="endArrow=none;html=1;rounded=0;exitX=1;exitY=0.5;exitDx=0;exitDy=0;entryX=0;entryY=0.5;entryDx=0;entryDy=0;" parent="1" source="NgBLxMBELUggTvaBQ7se-16" target="NgBLxMBELUggTvaBQ7se-7" edge="1">
          <mxGeometry width="50" height="50" relative="1" as="geometry">
            <mxPoint x="900" y="900" as="sourcePoint" />
            <mxPoint x="950" y="850" as="targetPoint" />
          </mxGeometry>
        </mxCell>
        <mxCell id="NgBLxMBELUggTvaBQ7se-27" value="" style="endArrow=none;html=1;rounded=0;exitX=1;exitY=0.5;exitDx=0;exitDy=0;entryX=0;entryY=0.5;entryDx=0;entryDy=0;" parent="1" source="NgBLxMBELUggTvaBQ7se-7" target="NgBLxMBELUggTvaBQ7se-17" edge="1">
          <mxGeometry width="50" height="50" relative="1" as="geometry">
            <mxPoint x="910" y="1100" as="sourcePoint" />
            <mxPoint x="960" y="1050" as="targetPoint" />
          </mxGeometry>
        </mxCell>
        <mxCell id="NgBLxMBELUggTvaBQ7se-28" value="" style="endArrow=none;html=1;rounded=0;exitX=1;exitY=0.75;exitDx=0;exitDy=0;entryX=0;entryY=0.5;entryDx=0;entryDy=0;" parent="1" source="NgBLxMBELUggTvaBQ7se-2" target="NgBLxMBELUggTvaBQ7se-5" edge="1">
          <mxGeometry width="50" height="50" relative="1" as="geometry">
            <mxPoint x="900" y="380" as="sourcePoint" />
            <mxPoint x="950" y="330" as="targetPoint" />
          </mxGeometry>
        </mxCell>
        <mxCell id="NgBLxMBELUggTvaBQ7se-29" value="" style="endArrow=none;html=1;rounded=0;exitX=1;exitY=0.5;exitDx=0;exitDy=0;entryX=0;entryY=0.5;entryDx=0;entryDy=0;" parent="1" source="NgBLxMBELUggTvaBQ7se-5" target="pvU-2DZ_yvHuzhMmbwo7-5" edge="1">
          <mxGeometry width="50" height="50" relative="1" as="geometry">
            <mxPoint x="910" y="1100" as="sourcePoint" />
            <mxPoint x="1090.0000000000002" y="1030" as="targetPoint" />
          </mxGeometry>
        </mxCell>
        <mxCell id="NgBLxMBELUggTvaBQ7se-30" value="" style="endArrow=none;html=1;rounded=0;exitX=1;exitY=0.5;exitDx=0;exitDy=0;entryX=0;entryY=0.5;entryDx=0;entryDy=0;" parent="1" source="NgBLxMBELUggTvaBQ7se-4" target="pvU-2DZ_yvHuzhMmbwo7-15" edge="1">
          <mxGeometry width="50" height="50" relative="1" as="geometry">
            <mxPoint x="910" y="740" as="sourcePoint" />
            <mxPoint x="1090.0000000000002" y="610" as="targetPoint" />
          </mxGeometry>
        </mxCell>
        <mxCell id="NgBLxMBELUggTvaBQ7se-31" value="" style="endArrow=none;html=1;rounded=0;exitX=1;exitY=0.5;exitDx=0;exitDy=0;entryX=0;entryY=0.5;entryDx=0;entryDy=0;" parent="1" source="NgBLxMBELUggTvaBQ7se-1" target="NgBLxMBELUggTvaBQ7se-16" edge="1">
          <mxGeometry width="50" height="50" relative="1" as="geometry">
            <mxPoint x="900" y="380" as="sourcePoint" />
            <mxPoint x="950" y="330" as="targetPoint" />
          </mxGeometry>
        </mxCell>
        <mxCell id="NgBLxMBELUggTvaBQ7se-32" value="" style="endArrow=none;html=1;rounded=0;exitX=1;exitY=0.5;exitDx=0;exitDy=0;entryX=0;entryY=0.5;entryDx=0;entryDy=0;" parent="1" source="NgBLxMBELUggTvaBQ7se-1" target="NgBLxMBELUggTvaBQ7se-3" edge="1">
          <mxGeometry width="50" height="50" relative="1" as="geometry">
            <mxPoint x="900" y="380" as="sourcePoint" />
            <mxPoint x="950" y="330" as="targetPoint" />
          </mxGeometry>
        </mxCell>
        <mxCell id="NgBLxMBELUggTvaBQ7se-33" value="ACTORES" style="text;html=1;align=center;verticalAlign=middle;whiteSpace=wrap;rounded=0;fontSize=19;fontStyle=1" parent="1" vertex="1">
          <mxGeometry x="735" y="50" width="60" height="30" as="geometry" />
        </mxCell>
        <mxCell id="NgBLxMBELUggTvaBQ7se-34" value="IMPACTOS" style="text;html=1;align=center;verticalAlign=middle;whiteSpace=wrap;rounded=0;fontSize=19;fontStyle=1" parent="1" vertex="1">
          <mxGeometry x="920" y="50" width="60" height="30" as="geometry" />
        </mxCell>
        <mxCell id="NgBLxMBELUggTvaBQ7se-35" value="ENTREGABLES" style="text;html=1;align=center;verticalAlign=middle;whiteSpace=wrap;rounded=0;fontSize=19;fontStyle=1" parent="1" vertex="1">
          <mxGeometry x="1170" y="50" width="60" height="30" as="geometry" />
        </mxCell>
        <mxCell id="NgBLxMBELUggTvaBQ7se-36" value="OBJETIVO" style="text;html=1;align=center;verticalAlign=middle;whiteSpace=wrap;rounded=0;fontSize=19;fontStyle=1" parent="1" vertex="1">
          <mxGeometry x="487.5" y="50" width="60" height="30" as="geometry" />
        </mxCell>
        <mxCell id="NgBLxMBELUggTvaBQ7se-37" value="" style="endArrow=none;html=1;rounded=0;exitX=1;exitY=0.5;exitDx=0;exitDy=0;entryX=0;entryY=0.5;entryDx=0;entryDy=0;" parent="1" source="NgBLxMBELUggTvaBQ7se-2" target="NgBLxMBELUggTvaBQ7se-4" edge="1">
          <mxGeometry width="50" height="50" relative="1" as="geometry">
            <mxPoint x="900" y="380" as="sourcePoint" />
            <mxPoint x="950" y="330" as="targetPoint" />
          </mxGeometry>
        </mxCell>
        <mxCell id="NgBLxMBELUggTvaBQ7se-38" value="" style="endArrow=none;html=1;rounded=0;strokeWidth=4;" parent="1" edge="1">
          <mxGeometry width="50" height="50" relative="1" as="geometry">
            <mxPoint x="690" y="1880" as="sourcePoint" />
            <mxPoint x="690" y="75" as="targetPoint" />
          </mxGeometry>
        </mxCell>
        <mxCell id="NgBLxMBELUggTvaBQ7se-39" value="" style="endArrow=none;html=1;rounded=0;strokeWidth=4;" parent="1" edge="1">
          <mxGeometry width="50" height="50" relative="1" as="geometry">
            <mxPoint x="840" y="1880" as="sourcePoint" />
            <mxPoint x="840" y="70" as="targetPoint" />
          </mxGeometry>
        </mxCell>
        <mxCell id="NgBLxMBELUggTvaBQ7se-40" value="" style="endArrow=none;html=1;rounded=0;strokeWidth=4;" parent="1" edge="1">
          <mxGeometry width="50" height="50" relative="1" as="geometry">
            <mxPoint x="1050" y="1890" as="sourcePoint" />
            <mxPoint x="1050" y="70" as="targetPoint" />
          </mxGeometry>
        </mxCell>
        <mxCell id="NgBLxMBELUggTvaBQ7se-41" value="&lt;div&gt;&lt;b&gt;&lt;br&gt;&lt;/b&gt;&lt;/div&gt;&lt;div style=&quot;font-weight: bold;&quot;&gt;&lt;b&gt;&lt;font style=&quot;font-size: 13px;&quot;&gt;Situación actual:&lt;/font&gt;&lt;/b&gt;&lt;/div&gt;&lt;div style=&quot;&quot;&gt;&lt;b style=&quot;background-color: transparent; color: light-dark(rgb(0, 0, 0), rgb(255, 255, 255));&quot;&gt;- Uso de Lotus Notes: &lt;/b&gt;&lt;span style=&quot;background-color: transparent; color: light-dark(rgb(0, 0, 0), rgb(255, 255, 255));&quot;&gt;mediante una aplicación de Lotus Notes que llega a su fin de soporte se gestiona todo el ciclo editorial de la revista.&lt;/span&gt;&lt;br&gt;&lt;b style=&quot;background-color: transparent; color: light-dark(rgb(0, 0, 0), rgb(255, 255, 255));&quot;&gt;- Carga de datos: &lt;/b&gt;&lt;span style=&quot;background-color: transparent; color: light-dark(rgb(0, 0, 0), rgb(255, 255, 255));&quot;&gt;de forma manual por medio de los usuarios&lt;/span&gt;&lt;b style=&quot;background-color: transparent; color: light-dark(rgb(0, 0, 0), rgb(255, 255, 255));&quot;&gt;,&amp;nbsp;&lt;/b&gt;&lt;span style=&quot;background-color: transparent; color: light-dark(rgb(0, 0, 0), rgb(255, 255, 255));&quot;&gt;apoyándose en comunicaciones externas por correo electrónico&lt;/span&gt;&lt;b style=&quot;background-color: transparent; color: light-dark(rgb(0, 0, 0), rgb(255, 255, 255));&quot;&gt;.&lt;/b&gt;&lt;/div&gt;&lt;div style=&quot;&quot;&gt;&lt;span style=&quot;background-color: transparent; color: light-dark(rgb(0, 0, 0), rgb(255, 255, 255));&quot;&gt;&lt;br&gt;&lt;/span&gt;&lt;/div&gt;&lt;b&gt;&lt;font style=&quot;font-size: 13px;&quot;&gt;Mínimo deseable&lt;/font&gt;:&lt;/b&gt;&amp;nbsp;Conseguir al menos un &lt;span data-end=&quot;1153&quot; data-start=&quot;1099&quot;&gt;20% de reducción en tiempo/coste de gestión manual&lt;/span&gt;.&lt;div&gt;&lt;br&gt;&lt;div&gt;&lt;b&gt;&lt;font style=&quot;font-size: 13px;&quot;&gt;Situación deseable:&lt;/font&gt;&lt;/b&gt;&lt;/div&gt;&lt;div&gt;&lt;span style=&quot;background-color: transparent; color: light-dark(rgb(0, 0, 0), rgb(255, 255, 255));&quot;&gt;- &lt;b&gt;Gestion centralizada:&lt;/b&gt; de artículos, autores y suscripciones.&lt;/span&gt;&lt;br&gt;&lt;span style=&quot;background-color: transparent; color: light-dark(rgb(0, 0, 0), rgb(255, 255, 255));&quot;&gt;-&amp;nbsp;&lt;/span&gt;&lt;span style=&quot;background-color: transparent; color: light-dark(rgb(0, 0, 0), rgb(255, 255, 255));&quot;&gt;&lt;b&gt;Carga de información (articulos, evaluaciones, suscripciones y distribución)&lt;/b&gt; gestionados dentro de la plataforma, sin dependencia del correo electrónico&lt;/span&gt;&lt;br&gt;&lt;/div&gt;&lt;/div&gt;" style="text;html=1;align=left;verticalAlign=middle;whiteSpace=wrap;rounded=0;" parent="1" vertex="1">
          <mxGeometry x="380" y="1000" width="280" height="255" as="geometry" />
        </mxCell>
        <mxCell id="NgBLxMBELUggTvaBQ7se-42" value="&lt;b&gt;&lt;font&gt;4&lt;/font&gt;&lt;/b&gt;" style="ellipse;whiteSpace=wrap;html=1;" parent="1" vertex="1">
          <mxGeometry x="1020" y="1105" width="20" height="20" as="geometry" />
        </mxCell>
        <mxCell id="NgBLxMBELUggTvaBQ7se-43" value="&lt;b&gt;&lt;font&gt;1&lt;/font&gt;&lt;/b&gt;" style="ellipse;whiteSpace=wrap;html=1;" parent="1" vertex="1">
          <mxGeometry x="1010" y="247.5" width="20" height="20" as="geometry" />
        </mxCell>
        <mxCell id="NgBLxMBELUggTvaBQ7se-44" value="&lt;b&gt;&lt;font&gt;2&lt;/font&gt;&lt;/b&gt;" style="ellipse;whiteSpace=wrap;html=1;" parent="1" vertex="1">
          <mxGeometry x="1020" y="610" width="20" height="20" as="geometry" />
        </mxCell>
        <mxCell id="NgBLxMBELUggTvaBQ7se-45" value="&lt;b&gt;&lt;font&gt;3&lt;/font&gt;&lt;/b&gt;" style="ellipse;whiteSpace=wrap;html=1;" parent="1" vertex="1">
          <mxGeometry x="1020" y="870" width="20" height="20" as="geometry" />
        </mxCell>
        <mxCell id="NgBLxMBELUggTvaBQ7se-46" value="&lt;b&gt;&lt;font&gt;6&lt;/font&gt;&lt;/b&gt;" style="ellipse;whiteSpace=wrap;html=1;" parent="1" vertex="1">
          <mxGeometry x="1010" y="1428.75" width="20" height="20" as="geometry" />
        </mxCell>
        <mxCell id="NgBLxMBELUggTvaBQ7se-47" value="&lt;b&gt;7&lt;/b&gt;" style="ellipse;whiteSpace=wrap;html=1;" parent="1" vertex="1">
          <mxGeometry x="1010" y="1583.75" width="20" height="20" as="geometry" />
        </mxCell>
        <mxCell id="NgBLxMBELUggTvaBQ7se-48" value="Reducción de etapas para la distribución física" style="rounded=1;whiteSpace=wrap;html=1;fontStyle=1;fillColor=#dae8fc;strokeColor=#6c8ebf;" parent="1" vertex="1">
          <mxGeometry x="865" y="1330" width="170" height="40" as="geometry" />
        </mxCell>
        <mxCell id="NgBLxMBELUggTvaBQ7se-49" value="&lt;b&gt;&lt;font&gt;5&lt;/font&gt;&lt;/b&gt;" style="ellipse;whiteSpace=wrap;html=1;" parent="1" vertex="1">
          <mxGeometry x="1020" y="1313.75" width="20" height="20" as="geometry" />
        </mxCell>
        <mxCell id="NgBLxMBELUggTvaBQ7se-50" value="" style="endArrow=none;html=1;rounded=0;exitX=1;exitY=0.5;exitDx=0;exitDy=0;entryX=0;entryY=0.5;entryDx=0;entryDy=0;" parent="1" source="NgBLxMBELUggTvaBQ7se-16" target="NgBLxMBELUggTvaBQ7se-48" edge="1">
          <mxGeometry width="50" height="50" relative="1" as="geometry">
            <mxPoint x="1360" y="1040" as="sourcePoint" />
            <mxPoint x="1410" y="990" as="targetPoint" />
          </mxGeometry>
        </mxCell>
        <mxCell id="NgBLxMBELUggTvaBQ7se-51" value="Plantilla configurable de etiquetas de envío postal" style="rounded=1;whiteSpace=wrap;html=1;fontStyle=1;fillColor=#f5f5f5;fontColor=#333333;strokeColor=#666666;" parent="1" vertex="1">
          <mxGeometry x="1080" y="1301.25" width="240" height="45" as="geometry" />
        </mxCell>
        <mxCell id="NgBLxMBELUggTvaBQ7se-52" value="" style="endArrow=none;html=1;rounded=0;exitX=1;exitY=0.5;exitDx=0;exitDy=0;entryX=0;entryY=0.5;entryDx=0;entryDy=0;" parent="1" source="NgBLxMBELUggTvaBQ7se-48" target="NgBLxMBELUggTvaBQ7se-51" edge="1">
          <mxGeometry width="50" height="50" relative="1" as="geometry">
            <mxPoint x="1070" y="1328.75" as="sourcePoint" />
            <mxPoint x="1120" y="1328.75" as="targetPoint" />
          </mxGeometry>
        </mxCell>
        <mxCell id="NgBLxMBELUggTvaBQ7se-53" value="Plantilla de certificados de pago sobre artículos publicados" style="rounded=1;whiteSpace=wrap;html=1;fontStyle=1;fillColor=#f5f5f5;fontColor=#333333;strokeColor=#666666;" parent="1" vertex="1">
          <mxGeometry x="1080" y="1740" width="240" height="65" as="geometry" />
        </mxCell>
        <mxCell id="NgBLxMBELUggTvaBQ7se-54" value="Mantener el control de pagos actualizado" style="rounded=1;whiteSpace=wrap;html=1;fontStyle=1;fillColor=#dae8fc;strokeColor=#6c8ebf;" parent="1" vertex="1">
          <mxGeometry x="860" y="1788.75" width="170" height="50" as="geometry" />
        </mxCell>
        <mxCell id="NgBLxMBELUggTvaBQ7se-55" value="" style="endArrow=none;html=1;rounded=0;exitX=1;exitY=0.5;exitDx=0;exitDy=0;entryX=0;entryY=0.5;entryDx=0;entryDy=0;" parent="1" source="NgBLxMBELUggTvaBQ7se-3" target="NgBLxMBELUggTvaBQ7se-54" edge="1">
          <mxGeometry width="50" height="50" relative="1" as="geometry">
            <mxPoint x="810" y="1393.25" as="sourcePoint" />
            <mxPoint x="860" y="1331.25" as="targetPoint" />
          </mxGeometry>
        </mxCell>
        <mxCell id="NgBLxMBELUggTvaBQ7se-56" value="&lt;b&gt;8&lt;/b&gt;" style="ellipse;whiteSpace=wrap;html=1;" parent="1" vertex="1">
          <mxGeometry x="1010" y="1778.75" width="20" height="20" as="geometry" />
        </mxCell>
        <mxCell id="pvU-2DZ_yvHuzhMmbwo7-2" value="" style="endArrow=none;html=1;rounded=0;entryX=-0.005;entryY=0.397;entryDx=0;entryDy=0;entryPerimeter=0;" parent="1" target="NgBLxMBELUggTvaBQ7se-53" edge="1">
          <mxGeometry width="50" height="50" relative="1" as="geometry">
            <mxPoint x="1030" y="1808.75" as="sourcePoint" />
            <mxPoint x="1110" y="1760" as="targetPoint" />
          </mxGeometry>
        </mxCell>
        <mxCell id="pvU-2DZ_yvHuzhMmbwo7-5" value="Panel de gestión de números de la revista" style="rounded=1;whiteSpace=wrap;html=1;fontStyle=1;align=center;fillColor=#f5f5f5;fontColor=#333333;strokeColor=#666666;" parent="1" vertex="1">
          <mxGeometry x="1080" y="820" width="240" height="50" as="geometry" />
        </mxCell>
        <mxCell id="pvU-2DZ_yvHuzhMmbwo7-6" value="Formulario de carga de datos de Perfil Militar" style="rounded=1;whiteSpace=wrap;html=1;fontStyle=1;align=center;fillColor=#f5f5f5;fontColor=#333333;strokeColor=#666666;" parent="1" vertex="1">
          <mxGeometry x="1080" y="225" width="240" height="50" as="geometry" />
        </mxCell>
        <mxCell id="pvU-2DZ_yvHuzhMmbwo7-8" value="" style="endArrow=none;html=1;rounded=0;entryX=0;entryY=0.5;entryDx=0;entryDy=0;exitX=1;exitY=0.5;exitDx=0;exitDy=0;" parent="1" source="NgBLxMBELUggTvaBQ7se-6" target="pvU-2DZ_yvHuzhMmbwo7-6" edge="1">
          <mxGeometry width="50" height="50" relative="1" as="geometry">
            <mxPoint x="1030" y="300" as="sourcePoint" />
            <mxPoint x="1150" y="280" as="targetPoint" />
          </mxGeometry>
        </mxCell>
        <mxCell id="pvU-2DZ_yvHuzhMmbwo7-9" value="Formulario de carga de datos bancarios" style="rounded=1;whiteSpace=wrap;html=1;fontStyle=1;align=center;fillColor=#f5f5f5;fontColor=#333333;strokeColor=#666666;" parent="1" vertex="1">
          <mxGeometry x="1080" y="285" width="240" height="50" as="geometry" />
        </mxCell>
        <mxCell id="pvU-2DZ_yvHuzhMmbwo7-10" value="Vista de autor con datos y artículos asociados" style="rounded=1;whiteSpace=wrap;html=1;fontStyle=1;align=center;fillColor=#f5f5f5;fontColor=#333333;strokeColor=#666666;" parent="1" vertex="1">
          <mxGeometry x="1080" y="350" width="240" height="50" as="geometry" />
        </mxCell>
        <mxCell id="pvU-2DZ_yvHuzhMmbwo7-11" value="Formulario de carga de artículos y control de versiones" style="rounded=1;whiteSpace=wrap;html=1;fontStyle=1;align=center;fillColor=#f5f5f5;fontColor=#333333;strokeColor=#666666;" parent="1" vertex="1">
          <mxGeometry x="1080" y="410" width="240" height="50" as="geometry" />
        </mxCell>
        <mxCell id="pvU-2DZ_yvHuzhMmbwo7-12" value="Edición de los estado de un artículo" style="rounded=1;whiteSpace=wrap;html=1;fontStyle=1;align=center;fillColor=#f5f5f5;fontColor=#333333;strokeColor=#666666;" parent="1" vertex="1">
          <mxGeometry x="1080" y="470" width="240" height="50" as="geometry" />
        </mxCell>
        <mxCell id="pvU-2DZ_yvHuzhMmbwo7-13" value="Panel de consejeros con asignación de artículos" style="rounded=1;whiteSpace=wrap;html=1;fontStyle=1;align=center;fillColor=#f5f5f5;fontColor=#333333;strokeColor=#666666;" parent="1" vertex="1">
          <mxGeometry x="1080" y="530" width="240" height="50" as="geometry" />
        </mxCell>
        <mxCell id="pvU-2DZ_yvHuzhMmbwo7-14" value="" style="endArrow=none;html=1;rounded=0;entryX=0;entryY=0.5;entryDx=0;entryDy=0;exitX=1;exitY=0.5;exitDx=0;exitDy=0;" parent="1" source="NgBLxMBELUggTvaBQ7se-4" target="pvU-2DZ_yvHuzhMmbwo7-13" edge="1">
          <mxGeometry width="50" height="50" relative="1" as="geometry">
            <mxPoint x="1140" y="495" as="sourcePoint" />
            <mxPoint x="1190" y="460" as="targetPoint" />
          </mxGeometry>
        </mxCell>
        <mxCell id="pvU-2DZ_yvHuzhMmbwo7-15" value="Registro de evaluaciones , con formulario y campos de nota/recomendación" style="rounded=1;whiteSpace=wrap;html=1;fontStyle=1;align=center;fillColor=#f5f5f5;fontColor=#333333;strokeColor=#666666;" parent="1" vertex="1">
          <mxGeometry x="1080" y="700" width="240" height="50" as="geometry" />
        </mxCell>
        <mxCell id="pvU-2DZ_yvHuzhMmbwo7-16" value="Enlace de subida de informes de evaluación" style="rounded=1;whiteSpace=wrap;html=1;fontStyle=1;align=center;fillColor=#f5f5f5;fontColor=#333333;strokeColor=#666666;" parent="1" vertex="1">
          <mxGeometry x="1080" y="760" width="240" height="50" as="geometry" />
        </mxCell>
        <mxCell id="pvU-2DZ_yvHuzhMmbwo7-18" value="" style="endArrow=none;html=1;rounded=0;entryX=0;entryY=0.5;entryDx=0;entryDy=0;exitX=1;exitY=0.5;exitDx=0;exitDy=0;" parent="1" source="NgBLxMBELUggTvaBQ7se-4" target="pvU-2DZ_yvHuzhMmbwo7-16" edge="1">
          <mxGeometry width="50" height="50" relative="1" as="geometry">
            <mxPoint x="1030" y="735" as="sourcePoint" />
            <mxPoint x="1070" y="680" as="targetPoint" />
          </mxGeometry>
        </mxCell>
        <mxCell id="pvU-2DZ_yvHuzhMmbwo7-19" value="" style="endArrow=none;html=1;rounded=0;entryX=0;entryY=0.5;entryDx=0;entryDy=0;exitX=1;exitY=0.5;exitDx=0;exitDy=0;" parent="1" source="NgBLxMBELUggTvaBQ7se-6" target="pvU-2DZ_yvHuzhMmbwo7-9" edge="1">
          <mxGeometry width="50" height="50" relative="1" as="geometry">
            <mxPoint x="1190" y="665" as="sourcePoint" />
            <mxPoint x="1230" y="610" as="targetPoint" />
          </mxGeometry>
        </mxCell>
        <mxCell id="pvU-2DZ_yvHuzhMmbwo7-20" value="" style="endArrow=none;html=1;rounded=0;entryX=0;entryY=0.5;entryDx=0;entryDy=0;exitX=1;exitY=0.5;exitDx=0;exitDy=0;" parent="1" source="NgBLxMBELUggTvaBQ7se-6" target="pvU-2DZ_yvHuzhMmbwo7-10" edge="1">
          <mxGeometry width="50" height="50" relative="1" as="geometry">
            <mxPoint x="1180" y="665" as="sourcePoint" />
            <mxPoint x="1220" y="610" as="targetPoint" />
          </mxGeometry>
        </mxCell>
        <mxCell id="pvU-2DZ_yvHuzhMmbwo7-21" value="" style="endArrow=none;html=1;rounded=0;entryX=0;entryY=0.5;entryDx=0;entryDy=0;exitX=1;exitY=0.5;exitDx=0;exitDy=0;" parent="1" source="NgBLxMBELUggTvaBQ7se-6" target="pvU-2DZ_yvHuzhMmbwo7-11" edge="1">
          <mxGeometry width="50" height="50" relative="1" as="geometry">
            <mxPoint x="1140" y="635" as="sourcePoint" />
            <mxPoint x="1180" y="580" as="targetPoint" />
          </mxGeometry>
        </mxCell>
        <mxCell id="pvU-2DZ_yvHuzhMmbwo7-22" value="" style="endArrow=none;html=1;rounded=0;entryX=0;entryY=0.5;entryDx=0;entryDy=0;exitX=1;exitY=0.5;exitDx=0;exitDy=0;" parent="1" source="NgBLxMBELUggTvaBQ7se-6" target="pvU-2DZ_yvHuzhMmbwo7-12" edge="1">
          <mxGeometry width="50" height="50" relative="1" as="geometry">
            <mxPoint x="1150" y="615" as="sourcePoint" />
            <mxPoint x="1190" y="560" as="targetPoint" />
          </mxGeometry>
        </mxCell>
        <mxCell id="pvU-2DZ_yvHuzhMmbwo7-23" value="Listado de Consejeros registrados" style="rounded=1;whiteSpace=wrap;html=1;fontStyle=1;align=center;fillColor=#f5f5f5;fontColor=#333333;strokeColor=#666666;" parent="1" vertex="1">
          <mxGeometry x="1080" y="585" width="240" height="50" as="geometry" />
        </mxCell>
        <mxCell id="pvU-2DZ_yvHuzhMmbwo7-24" value="" style="endArrow=none;html=1;rounded=0;entryX=0;entryY=0.5;entryDx=0;entryDy=0;exitX=1;exitY=0.5;exitDx=0;exitDy=0;" parent="1" source="NgBLxMBELUggTvaBQ7se-4" target="pvU-2DZ_yvHuzhMmbwo7-23" edge="1">
          <mxGeometry width="50" height="50" relative="1" as="geometry">
            <mxPoint x="1040" y="610" as="sourcePoint" />
            <mxPoint x="1410" y="630" as="targetPoint" />
          </mxGeometry>
        </mxCell>
        <mxCell id="pvU-2DZ_yvHuzhMmbwo7-25" value="Alta, baja y edición de Consejeros en el sistema" style="rounded=1;whiteSpace=wrap;html=1;fontStyle=1;align=center;fillColor=#f5f5f5;fontColor=#333333;strokeColor=#666666;" parent="1" vertex="1">
          <mxGeometry x="1080" y="640" width="240" height="50" as="geometry" />
        </mxCell>
        <mxCell id="pvU-2DZ_yvHuzhMmbwo7-26" value="Marcado y asignación de artículos propuestos a las secciones" style="rounded=1;whiteSpace=wrap;html=1;fontStyle=1;align=center;fillColor=#f5f5f5;fontColor=#333333;strokeColor=#666666;" parent="1" vertex="1">
          <mxGeometry x="1080" y="940" width="240" height="50" as="geometry" />
        </mxCell>
        <mxCell id="pvU-2DZ_yvHuzhMmbwo7-27" value="Panel de edición de las secciones de la revista" style="rounded=1;whiteSpace=wrap;html=1;fontStyle=1;align=center;fillColor=#f5f5f5;fontColor=#333333;strokeColor=#666666;" parent="1" vertex="1">
          <mxGeometry x="1080" y="880" width="240" height="50" as="geometry" />
        </mxCell>
        <mxCell id="pvU-2DZ_yvHuzhMmbwo7-28" value="" style="endArrow=none;html=1;rounded=0;exitX=1;exitY=0.5;exitDx=0;exitDy=0;" parent="1" source="NgBLxMBELUggTvaBQ7se-5" target="pvU-2DZ_yvHuzhMmbwo7-27" edge="1">
          <mxGeometry width="50" height="50" relative="1" as="geometry">
            <mxPoint x="1090" y="1070" as="sourcePoint" />
            <mxPoint x="1130" y="1010" as="targetPoint" />
          </mxGeometry>
        </mxCell>
        <mxCell id="pvU-2DZ_yvHuzhMmbwo7-29" value="" style="endArrow=none;html=1;rounded=0;exitX=1;exitY=0.5;exitDx=0;exitDy=0;entryX=0;entryY=0.5;entryDx=0;entryDy=0;" parent="1" source="NgBLxMBELUggTvaBQ7se-5" target="pvU-2DZ_yvHuzhMmbwo7-26" edge="1">
          <mxGeometry width="50" height="50" relative="1" as="geometry">
            <mxPoint x="1130" y="1090" as="sourcePoint" />
            <mxPoint x="1170" y="1030" as="targetPoint" />
          </mxGeometry>
        </mxCell>
        <mxCell id="pvU-2DZ_yvHuzhMmbwo7-30" value="" style="endArrow=none;html=1;rounded=0;entryX=0;entryY=0.5;entryDx=0;entryDy=0;" parent="1" target="pvU-2DZ_yvHuzhMmbwo7-25" edge="1">
          <mxGeometry width="50" height="50" relative="1" as="geometry">
            <mxPoint x="1040" y="640" as="sourcePoint" />
            <mxPoint x="1450" y="670" as="targetPoint" />
          </mxGeometry>
        </mxCell>
        <mxCell id="pvU-2DZ_yvHuzhMmbwo7-31" value="Cambio de estado de las suscripciones" style="rounded=1;whiteSpace=wrap;html=1;fontStyle=1;fillColor=#f5f5f5;fontColor=#333333;strokeColor=#666666;" parent="1" vertex="1">
          <mxGeometry x="1080" y="1060" width="240" height="45" as="geometry" />
        </mxCell>
        <mxCell id="pvU-2DZ_yvHuzhMmbwo7-32" value="" style="endArrow=none;html=1;rounded=0;exitX=1;exitY=0.5;exitDx=0;exitDy=0;entryX=0;entryY=0.5;entryDx=0;entryDy=0;" parent="1" source="NgBLxMBELUggTvaBQ7se-7" target="pvU-2DZ_yvHuzhMmbwo7-31" edge="1">
          <mxGeometry width="50" height="50" relative="1" as="geometry">
            <mxPoint x="1130" y="1212" as="sourcePoint" />
            <mxPoint x="1170" y="1150" as="targetPoint" />
          </mxGeometry>
        </mxCell>
        <mxCell id="pvU-2DZ_yvHuzhMmbwo7-33" value="Formulario de datos personales y de contacto de suscriptor" style="rounded=1;whiteSpace=wrap;html=1;fontStyle=1;fillColor=#f5f5f5;fontColor=#333333;strokeColor=#666666;" parent="1" vertex="1">
          <mxGeometry x="1080" y="1120" width="240" height="45" as="geometry" />
        </mxCell>
        <mxCell id="pvU-2DZ_yvHuzhMmbwo7-34" value="Formulario de registro de pagador con datos bancarios" style="rounded=1;whiteSpace=wrap;html=1;fontStyle=1;fillColor=#f5f5f5;fontColor=#333333;strokeColor=#666666;" parent="1" vertex="1">
          <mxGeometry x="1080" y="1180" width="240" height="45" as="geometry" />
        </mxCell>
        <mxCell id="pvU-2DZ_yvHuzhMmbwo7-35" value="Formularios de registro de direcciones postales" style="rounded=1;whiteSpace=wrap;html=1;fontStyle=1;fillColor=#f5f5f5;fontColor=#333333;strokeColor=#666666;" parent="1" vertex="1">
          <mxGeometry x="1080" y="1240" width="240" height="45" as="geometry" />
        </mxCell>
        <mxCell id="pvU-2DZ_yvHuzhMmbwo7-36" value="" style="endArrow=none;html=1;rounded=0;exitX=0;exitY=0.5;exitDx=0;exitDy=0;entryX=1;entryY=0.5;entryDx=0;entryDy=0;" parent="1" source="pvU-2DZ_yvHuzhMmbwo7-33" target="NgBLxMBELUggTvaBQ7se-7" edge="1">
          <mxGeometry width="50" height="50" relative="1" as="geometry">
            <mxPoint x="980" y="1232" as="sourcePoint" />
            <mxPoint x="1020" y="1170" as="targetPoint" />
          </mxGeometry>
        </mxCell>
        <mxCell id="pvU-2DZ_yvHuzhMmbwo7-37" value="" style="endArrow=none;html=1;rounded=0;exitX=0;exitY=0.5;exitDx=0;exitDy=0;entryX=1;entryY=0.5;entryDx=0;entryDy=0;" parent="1" source="pvU-2DZ_yvHuzhMmbwo7-34" target="NgBLxMBELUggTvaBQ7se-7" edge="1">
          <mxGeometry width="50" height="50" relative="1" as="geometry">
            <mxPoint x="980" y="1242" as="sourcePoint" />
            <mxPoint x="1020" y="1180" as="targetPoint" />
          </mxGeometry>
        </mxCell>
        <mxCell id="pvU-2DZ_yvHuzhMmbwo7-38" value="" style="endArrow=none;html=1;rounded=0;exitX=0;exitY=0.5;exitDx=0;exitDy=0;entryX=1;entryY=0.5;entryDx=0;entryDy=0;" parent="1" source="pvU-2DZ_yvHuzhMmbwo7-35" target="NgBLxMBELUggTvaBQ7se-7" edge="1">
          <mxGeometry width="50" height="50" relative="1" as="geometry">
            <mxPoint x="990" y="1282" as="sourcePoint" />
            <mxPoint x="1030" y="1220" as="targetPoint" />
          </mxGeometry>
        </mxCell>
        <mxCell id="pvU-2DZ_yvHuzhMmbwo7-39" value="Exportación de etiquetas de envío postal" style="rounded=1;whiteSpace=wrap;html=1;fontStyle=1;fillColor=#f5f5f5;fontColor=#333333;strokeColor=#666666;" parent="1" vertex="1">
          <mxGeometry x="1080" y="1360" width="240" height="45" as="geometry" />
        </mxCell>
        <mxCell id="pvU-2DZ_yvHuzhMmbwo7-40" value="" style="endArrow=none;html=1;rounded=0;exitX=1;exitY=0.5;exitDx=0;exitDy=0;entryX=0;entryY=0.5;entryDx=0;entryDy=0;" parent="1" source="NgBLxMBELUggTvaBQ7se-48" target="pvU-2DZ_yvHuzhMmbwo7-39" edge="1">
          <mxGeometry width="50" height="50" relative="1" as="geometry">
            <mxPoint x="980" y="1380" as="sourcePoint" />
            <mxPoint x="1020" y="1380" as="targetPoint" />
          </mxGeometry>
        </mxCell>
        <mxCell id="pvU-2DZ_yvHuzhMmbwo7-41" value="Observaciones asociadas a artículos y control de versiones de documentos" style="rounded=1;whiteSpace=wrap;html=1;fontStyle=1;fillColor=#f5f5f5;fontColor=#333333;strokeColor=#666666;" parent="1" vertex="1">
          <mxGeometry x="1080" y="1470" width="240" height="37.5" as="geometry" />
        </mxCell>
        <mxCell id="pvU-2DZ_yvHuzhMmbwo7-42" value="" style="endArrow=none;html=1;rounded=0;exitX=1;exitY=0.5;exitDx=0;exitDy=0;entryX=0;entryY=0.5;entryDx=0;entryDy=0;" parent="1" source="NgBLxMBELUggTvaBQ7se-8" target="pvU-2DZ_yvHuzhMmbwo7-41" edge="1">
          <mxGeometry width="50" height="50" relative="1" as="geometry">
            <mxPoint x="980" y="1600" as="sourcePoint" />
            <mxPoint x="1030" y="1550" as="targetPoint" />
          </mxGeometry>
        </mxCell>
        <mxCell id="pvU-2DZ_yvHuzhMmbwo7-43" value="Componente de búsqueda por autores y datos asociados" style="rounded=1;whiteSpace=wrap;html=1;fontStyle=1;fillColor=#f5f5f5;fontColor=#333333;strokeColor=#666666;" parent="1" vertex="1">
          <mxGeometry x="1080" y="1590" width="240" height="65" as="geometry" />
        </mxCell>
        <mxCell id="pvU-2DZ_yvHuzhMmbwo7-44" value="Componente de búsqueda por números de revista y datos asociados" style="rounded=1;whiteSpace=wrap;html=1;fontStyle=1;fillColor=#f5f5f5;fontColor=#333333;strokeColor=#666666;" parent="1" vertex="1">
          <mxGeometry x="1080" y="1660" width="240" height="65" as="geometry" />
        </mxCell>
        <mxCell id="pvU-2DZ_yvHuzhMmbwo7-46" value="" style="endArrow=none;html=1;rounded=0;exitX=1;exitY=0.5;exitDx=0;exitDy=0;entryX=0;entryY=0.5;entryDx=0;entryDy=0;" parent="1" source="NgBLxMBELUggTvaBQ7se-9" target="pvU-2DZ_yvHuzhMmbwo7-43" edge="1">
          <mxGeometry width="50" height="50" relative="1" as="geometry">
            <mxPoint x="990" y="1704" as="sourcePoint" />
            <mxPoint x="1040" y="1670" as="targetPoint" />
          </mxGeometry>
        </mxCell>
        <mxCell id="pvU-2DZ_yvHuzhMmbwo7-47" value="" style="endArrow=none;html=1;rounded=0;exitX=1;exitY=0.5;exitDx=0;exitDy=0;entryX=0;entryY=0.5;entryDx=0;entryDy=0;" parent="1" source="NgBLxMBELUggTvaBQ7se-9" target="pvU-2DZ_yvHuzhMmbwo7-44" edge="1">
          <mxGeometry width="50" height="50" relative="1" as="geometry">
            <mxPoint x="980" y="1694" as="sourcePoint" />
            <mxPoint x="1030" y="1660" as="targetPoint" />
          </mxGeometry>
        </mxCell>
        <mxCell id="pvU-2DZ_yvHuzhMmbwo7-48" value="Exportación de certificados de pago" style="rounded=1;whiteSpace=wrap;html=1;fontStyle=1;fillColor=#f5f5f5;fontColor=#333333;strokeColor=#666666;" parent="1" vertex="1">
          <mxGeometry x="1080" y="1818.75" width="240" height="45" as="geometry" />
        </mxCell>
        <mxCell id="pvU-2DZ_yvHuzhMmbwo7-49" value="" style="endArrow=none;html=1;rounded=0;exitX=0.983;exitY=0.4;exitDx=0;exitDy=0;entryX=0;entryY=0.5;entryDx=0;entryDy=0;exitPerimeter=0;" parent="1" source="NgBLxMBELUggTvaBQ7se-54" target="pvU-2DZ_yvHuzhMmbwo7-48" edge="1">
          <mxGeometry width="50" height="50" relative="1" as="geometry">
            <mxPoint x="1030" y="1899.75" as="sourcePoint" />
            <mxPoint x="1077" y="1858.75" as="targetPoint" />
          </mxGeometry>
        </mxCell>
      </root>
    </mxGraphModel>
  </diagram>
</mxfile>
